<svg width="20" height="20" viewBox="0 0 20 20" fill="none" xmlns="http://www.w3.org/2000/svg">
<path d="M18.7655 1.2344L8.75379 11.2461M1.28238 7.5912L18.4699 1.08616C18.5319 1.06244 18.5994 1.05719 18.6644 1.07103C18.7293 1.08487 18.7888 1.11722 18.8358 1.16416C18.8827 1.2111 18.915 1.27063 18.9289 1.33555C18.9427 1.40048 18.9375 1.46802 18.9138 1.53003L12.4087 18.7175C12.3828 18.7828 12.3376 18.8386 12.2791 18.8774C12.2206 18.9162 12.1516 18.9361 12.0814 18.9345C12.0112 18.9329 11.9431 18.9099 11.8864 18.8685C11.8297 18.8271 11.7871 18.7693 11.7642 18.7029L8.86809 11.5662C8.83432 11.4651 8.7775 11.3732 8.7021 11.2978C8.62671 11.2224 8.53481 11.1656 8.43367 11.1318L1.29699 8.23831C1.22976 8.21594 1.17109 8.17334 1.129 8.11634C1.0869 8.05934 1.06345 7.99073 1.06186 7.9199C1.06026 7.84906 1.08059 7.77946 1.12006 7.72062C1.15954 7.66178 1.21623 7.61658 1.28238 7.5912V7.5912Z" stroke="black" stroke-width="1.375" stroke-linecap="round" stroke-linejoin="round"/>
</svg>
